<svg width="54" height="51" viewBox="0 0 54 51" fill="none" xmlns="http://www.w3.org/2000/svg">
<path fill-rule="evenodd" clip-rule="evenodd" d="M43.983 4.14091L44.109 4.26691L44.121 4.27792L46.915 7.07291L49.71 9.86692L49.718 9.87492L49.848 10.0049L51.979 7.87391C52.061 7.79091 52.103 7.68192 52.103 7.57192C52.103 7.46192 52.062 7.35292 51.979 7.26992L49.349 4.63992L46.719 2.00992C46.711 2.00192 46.703 1.99392 46.695 1.98492C46.616 1.91892 46.517 1.88592 46.417 1.88592C46.307 1.88592 46.198 1.92692 46.115 2.00992L43.983 4.14091ZM28.526 13.8359L31.176 11.1859C32.601 9.76092 34.431 8.97192 36.305 8.81692H37.675C39.549 8.97192 41.378 9.76092 42.803 11.1859C44.227 12.6099 45.017 14.4389 45.172 16.3119V17.6859C45.017 19.5599 44.227 21.3889 42.803 22.8129L40.153 25.4629L37.3 22.6089L28.526 13.8359ZM41.335 26.6449L48.928 34.2379C49.896 35.2059 50.463 36.3259 50.643 37.4259C50.838 38.6159 50.581 39.7789 49.893 40.7149C49.808 40.8299 48.004 42.6419 46.082 44.5599C43.848 46.7889 41.419 49.1929 41.327 49.2579C40.391 49.9099 39.242 50.1429 38.069 49.9369C36.988 49.7469 35.889 49.1829 34.936 48.2289L27.343 40.6349L19.749 48.2289C18.781 49.1969 17.661 49.7639 16.561 49.9439C15.37 50.1389 14.208 49.8819 13.272 49.1939C13.157 49.1089 11.346 47.3069 9.42902 45.3859C7.20002 43.1509 4.79303 40.7199 4.72903 40.6279C4.07703 39.6919 3.84402 38.5429 4.05002 37.3699C4.23902 36.2889 4.80402 35.1899 5.75702 34.2369L13.35 26.6439L10.7 23.9939C9.00204 22.2959 8.05303 20.1209 7.85303 17.8909C7.84803 17.8589 7.84603 17.8269 7.84503 17.7929C7.82403 17.5279 7.81302 17.2629 7.81302 16.9969C7.81302 16.7329 7.82302 16.4679 7.84402 16.2049V14.8279C7.84402 14.5169 7.79104 14.2329 7.68604 13.9799C7.58204 13.7299 7.42004 13.4939 7.20004 13.2739L5.56702 11.6409L5.43002 11.7789C5.10302 12.1059 4.57404 12.1059 4.24704 11.7789L1.52402 9.05592C1.11502 8.64692 0.910034 8.10892 0.910034 7.57092C0.910034 7.03292 1.11502 6.49491 1.52402 6.08591L4.15402 3.45592L6.78403 0.825912C7.19303 0.416912 7.73104 0.211914 8.26904 0.211914C8.80604 0.211914 9.34403 0.416912 9.75403 0.825912L12.477 3.54892C12.804 3.87592 12.804 4.40492 12.477 4.73192L12.34 4.86992L13.973 6.50291C14.193 6.72291 14.429 6.88591 14.68 6.98891L14.683 6.98991L14.684 6.98891C14.942 7.09591 15.224 7.14991 15.528 7.14991H16.86C17.138 7.12691 17.418 7.11492 17.697 7.11492C20.233 7.11492 22.769 8.07792 24.693 10.0019L27.343 12.6519L29.993 10.0019C31.918 8.07691 34.454 7.11492 36.989 7.11492C37.268 7.11492 37.547 7.12691 37.824 7.14991H39.158C39.464 7.14991 39.747 7.09591 40.006 6.98891C40.26 6.88391 40.496 6.72191 40.714 6.50491L40.712 6.50291L42.345 4.86992L42.208 4.73192C41.881 4.40492 41.881 3.87592 42.208 3.54892L44.931 0.825912C45.34 0.416912 45.878 0.211914 46.416 0.211914C46.927 0.211914 47.44 0.398919 47.842 0.771919C47.862 0.788919 47.882 0.806913 47.901 0.824913L50.531 3.45492L53.161 6.08492C53.57 6.49392 53.775 7.03192 53.775 7.56992C53.775 8.10692 53.57 8.64491 53.161 9.05491L50.438 11.7779C50.111 12.1049 49.582 12.1049 49.255 11.7779L49.117 11.6409L47.484 13.2739C47.471 13.2869 47.457 13.2999 47.443 13.3119C47.245 13.5179 47.097 13.7409 46.997 13.9799L46.996 13.9829L46.997 13.9839C46.89 14.2419 46.836 14.5239 46.836 14.8279V16.1599C46.86 16.4379 46.871 16.7179 46.871 16.9969C46.871 19.5329 45.909 22.0689 43.984 23.9929L41.335 26.6449ZM26.16 39.4539L23.306 36.6009L14.533 27.8279L6.93903 35.4209C6.23803 36.1219 5.82804 36.9049 5.69504 37.6589C5.56604 38.3959 5.70504 39.1079 6.10004 39.6749C6.12004 39.7029 8.43802 42.0319 10.611 44.2109C12.478 46.0819 14.213 47.8159 14.258 47.8489C14.826 48.2669 15.546 48.4209 16.292 48.2979C17.056 48.1729 17.852 47.7599 18.565 47.0469L26.16 39.4539ZM8.82803 12.6179C9.29303 11.6729 9.91702 10.7869 10.701 10.0029C11.485 9.21892 12.371 8.59492 13.316 8.12992C13.131 7.99992 12.956 7.85191 12.791 7.68691L11.158 6.05392L8.95502 8.25692L6.75204 10.4599L8.38504 12.0929C8.55004 12.2579 8.69703 12.4329 8.82803 12.6179ZM36.116 23.7919L27.343 15.0189L18.57 23.7919L15.717 26.6449L24.49 35.4179L27.343 38.2709L30.196 35.4179L38.969 26.6449L36.116 23.7919ZM26.16 13.8359L23.51 11.1859C22.086 9.76192 20.257 8.97191 18.383 8.81791H17.009C15.136 8.97291 13.307 9.76192 11.883 11.1859C10.468 12.6009 9.68004 14.4159 9.51804 16.2759V17.7219C9.68004 19.5829 10.468 21.3969 11.883 22.8119L14.533 25.4619L17.386 22.6079L26.16 13.8359ZM28.526 39.4539L36.12 47.0479C36.821 47.7489 37.604 48.1589 38.358 48.2919C39.095 48.4209 39.806 48.2829 40.374 47.8869C40.402 47.8669 42.729 45.5509 44.907 43.3789C46.779 41.5119 48.515 39.7739 48.548 39.7299C48.966 39.1619 49.12 38.4419 48.997 37.6959C48.872 36.9329 48.459 36.1359 47.746 35.4229L40.152 27.8299L31.379 36.6029L28.526 39.4539ZM41.369 8.12891C41.552 7.99891 41.727 7.85192 41.892 7.68592L41.894 7.68392L41.896 7.68592L43.529 6.05292L45.732 8.25591L47.935 10.4589L46.302 12.0919C46.285 12.1089 46.269 12.1259 46.254 12.1439C46.108 12.2949 45.977 12.4529 45.859 12.6179C45.394 11.6719 44.77 10.7859 43.985 10.0019C43.201 9.21791 42.315 8.59391 41.369 8.12891ZM4.96503 9.87891L4.97604 9.86692L7.77103 7.07291L10.565 4.27792L10.569 4.27392L10.703 4.13992L8.57202 2.00892C8.49002 1.92592 8.38002 1.88492 8.27002 1.88492C8.16002 1.88492 8.05102 1.92592 7.96802 2.00892L5.33804 4.63892L2.70804 7.26891C2.62604 7.35191 2.58405 7.46092 2.58405 7.57092C2.58405 7.68092 2.62504 7.78992 2.70804 7.87292L4.83902 10.0039L4.96503 9.87891Z" fill="white"/>
</svg>
