<?xml version="1.0" encoding="utf-8"?>
<!-- Generator: Adobe Illustrator 17.0.1, SVG Export Plug-In . SVG Version: 6.00 Build 0)  -->
<!DOCTYPE svg PUBLIC "-//W3C//DTD SVG 1.1//EN" "http://www.w3.org/Graphics/SVG/1.1/DTD/svg11.dtd">
<svg version="1.1" id="Layer_1" xmlns="http://www.w3.org/2000/svg" xmlns:xlink="http://www.w3.org/1999/xlink" x="0px" y="0px"
	 width="125px" height="125px" viewBox="0 0 125 125" enable-background="new 0 0 125 125" xml:space="preserve">
<g>
	<circle fill-rule="evenodd" clip-rule="evenodd" cx="62.362" cy="62.638" r="58.411"/>
	<path fill-rule="evenodd" clip-rule="evenodd" fill="#FFFFFF" d="M62.362,1.082c16.998,0,32.388,6.89,43.527,18.029
		c11.139,11.139,18.029,26.529,18.029,43.527s-6.89,32.388-18.029,43.527c-11.139,11.139-26.529,18.03-43.527,18.03
		c-16.998,0-32.388-6.89-43.527-18.03C7.696,95.025,0.806,79.636,0.806,62.638c0-16.998,6.89-32.387,18.029-43.527
		S45.364,1.082,62.362,1.082L62.362,1.082z M101.441,23.559C91.441,13.558,77.623,7.372,62.362,7.372
		c-15.261,0-29.078,6.186-39.079,16.187S7.096,47.376,7.096,62.638c0,15.261,6.186,29.078,16.187,39.079
		c10.001,10.001,23.818,16.187,39.079,16.187c15.261,0,29.078-6.186,39.079-16.187c10.001-10.001,16.187-23.818,16.187-39.079
		C117.628,47.376,111.442,33.559,101.441,23.559z"/>
	<polygon fill-rule="evenodd" clip-rule="evenodd" fill="#FFFFFF" points="89.885,62.638 68.973,74.711 48.061,86.784 
		48.061,62.638 48.061,38.491 68.973,50.564 	"/>
</g>
</svg>
