<svg version = "1.1"
     xmlns = "http://www.w3.org/2000/svg"
     viewBox = "0 0 28 43">
<path fill-rule = "evenodd"
      clip-rule = "evenodd"
      d = "M9.414,7.528h3.448V4.291h3.168v3.236h6.383v3.382h-6.383h-3.168H9.414
	c-1.092,0-1.987,0.895-1.987,1.987v5.166c0,1.092,0.894,1.987,1.987,1.987h8.049v0h1.468c2.951,0,5.369,2.416,5.369,5.368v5.166
	c0,2.953-2.417,5.369-5.369,5.369h-2.901v3.236h-3.168v-3.236H5.257v-3.381h7.605h3.168h2.901c1.093,0,1.987-0.895,1.987-1.987
	v-5.166c0-1.092-0.894-1.987-1.987-1.987h-8.049v0H9.414c-2.951,0-5.369-2.416-5.369-5.368v-5.166
	C4.045,9.943,6.462,7.528,9.414,7.528z"/>
</svg>
